<svg width="26" height="26" viewBox="0 0 26 26" fill="none" xmlns="http://www.w3.org/2000/svg">
<path fill-rule="evenodd" clip-rule="evenodd" d="M2.16669 13C2.16669 12.4017 2.65171 11.9167 3.25002 11.9167H22.75C23.3483 11.9167 23.8334 12.4017 23.8334 13C23.8334 13.5983 23.3483 14.0833 22.75 14.0833H3.25002C2.65171 14.0833 2.16669 13.5983 2.16669 13Z" fill="white"/>
<path fill-rule="evenodd" clip-rule="evenodd" d="M2.16669 6.49999C2.16669 5.90168 2.65171 5.41666 3.25002 5.41666H22.75C23.3483 5.41666 23.8334 5.90168 23.8334 6.49999C23.8334 7.0983 23.3483 7.58332 22.75 7.58332H3.25002C2.65171 7.58332 2.16669 7.0983 2.16669 6.49999Z" fill="white"/>
<path fill-rule="evenodd" clip-rule="evenodd" d="M2.16669 19.5C2.16669 18.9017 2.65171 18.4167 3.25002 18.4167H22.75C23.3483 18.4167 23.8334 18.9017 23.8334 19.5C23.8334 20.0983 23.3483 20.5833 22.75 20.5833H3.25002C2.65171 20.5833 2.16669 20.0983 2.16669 19.5Z" fill="white"/>
</svg>
