<?xml version="1.0" encoding="utf-8"?>
<!-- Generator: Adobe Illustrator 26.0.1, SVG Export Plug-In . SVG Version: 6.00 Build 0)  -->
<svg version="1.1" id="Layer_1" focusable="false" xmlns="http://www.w3.org/2000/svg" xmlns:xlink="http://www.w3.org/1999/xlink"
	 x="0px" y="0px" viewBox="0 0 22 22" style="enable-background:new 0 0 22 22;" xml:space="preserve">
<style type="text/css">
	.st0{fill:#FFFFFF;}
</style>
<path class="st0" d="M9.1,14L9.1,14c0-0.6,0-0.3-2.5-6.7c-0.5-1.3-2-1.3-2.5,0c-2.6,6.5-2.5,6.2-2.5,6.7h0c0,1.6,1.7,3,3.8,3
	S9.1,15.6,9.1,14z M5.3,8l2.1,5.3H3.2L5.3,8z M20.5,14c0-0.6,0-0.3-2.5-6.7c-0.5-1.3-2-1.3-2.5,0c-2.6,6.5-2.5,6.2-2.5,6.7h0
	c0,1.6,1.7,3,3.8,3S20.5,15.6,20.5,14L20.5,14z M14.6,13.4L16.7,8l2.1,5.3H14.6z M17.2,18.1h-5.2V7.2c0.7-0.4,1.2-1.2,1.4-2.1h3.8
	c0.3,0,0.5-0.3,0.5-0.6V3.3c0-0.3-0.2-0.6-0.5-0.6h-4.3C12.5,2,11.8,1.5,11,1.5S9.5,2,9.1,2.7H4.8C4.6,2.7,4.3,3,4.3,3.3v1.2
	c0,0.3,0.2,0.6,0.5,0.6h3.8c0.2,1,0.7,1.7,1.4,2.1v10.9H4.8c-0.3,0-0.5,0.3-0.5,0.6v1.2c0,0.3,0.2,0.6,0.5,0.6h12.3
	c0.3,0,0.5-0.3,0.5-0.6v-1.2C17.6,18.4,17.4,18.1,17.2,18.1z"/>
</svg>
