<svg width="245" height="245" viewBox="0 0 245 245" fill="none" xmlns="http://www.w3.org/2000/svg">
<path d="M183.444 78.5914L165.815 80.448L173.51 42.8559C174.201 39.4686 175.797 36.3321 178.13 33.7805C180.462 31.229 183.443 29.3578 186.755 28.3664L222.146 17.7242C229.171 15.6187 236.253 20.8633 236.253 28.2133C236.253 35.123 229.381 39.9465 222.893 37.5922L217.973 36.482L198.144 42.3582C196.216 42.9321 194.471 44.0009 193.084 45.4583C191.697 46.9157 190.716 48.7109 190.239 50.6652L183.444 78.5914Z" fill="#A2A2A2"/>
<path d="M165.164 158.389L152.895 210.547L137.985 205.283L147.172 158.389H165.164Z" fill="#A2A2A2"/>
<path d="M156.494 195.234H36.0609V211.179H153.776L156.494 195.234Z" fill="#A2A2A2"/>
<path d="M3.73242 92.0281L17.9156 161.164C19.0066 166.523 23.7152 170.352 29.1703 170.352H160.322C161.188 170.352 162.028 170.059 162.706 169.52C163.384 168.981 163.859 168.229 164.054 167.385L187.061 67.8344C187.655 65.2887 185.588 62.9344 182.984 63.1641L13.9535 78.2852C12.3427 78.4286 10.7804 78.911 9.36906 79.7006C7.95773 80.4902 6.72923 81.5692 5.76413 82.8668C4.79903 84.1645 4.11912 85.6515 3.76898 87.2303C3.41884 88.8091 3.40638 90.4441 3.73242 92.0281ZM30.4336 94.1145L38.5875 93.3871C39.3822 93.3156 40.1831 93.4104 40.9391 93.6656C41.6951 93.9207 42.3897 94.3305 42.9785 94.869C43.5674 95.4074 44.0376 96.0626 44.3592 96.7928C44.6808 97.523 44.8468 98.3123 44.8465 99.1102V108.336C44.8465 111.513 42.2816 114.078 39.1043 114.078H30.5293C27.8113 114.078 25.457 112.164 24.9019 109.484L23.6387 103.283C23.4154 102.227 23.4188 101.137 23.6486 100.083C23.8784 99.0285 24.3293 98.0353 24.9717 97.1686C25.614 96.3019 26.4331 95.5815 27.3746 95.055C28.3162 94.5285 29.3589 94.2079 30.4336 94.1145ZM103.57 129.371H114.442C117.619 129.371 120.184 131.936 120.184 135.114V147.383C120.184 150.56 117.619 153.125 114.442 153.125H103.57C100.393 153.125 97.8277 150.56 97.8277 147.383V135.114C97.8277 131.936 100.393 129.371 103.57 129.371ZM114.442 114.059H103.57C100.393 114.059 97.8277 111.494 97.8277 108.317V93.3297C97.8277 90.3629 100.105 87.8746 103.053 87.6066L113.925 86.6305C114.72 86.5589 115.521 86.6538 116.277 86.9089C117.033 87.164 117.727 87.5739 118.316 88.1123C118.905 88.6508 119.375 89.306 119.697 90.0362C120.018 90.7664 120.184 91.5556 120.184 92.3535V108.317C120.184 111.494 117.619 114.059 114.442 114.059ZM82.5152 135.114V147.383C82.5152 150.56 79.9504 153.125 76.773 153.125H65.9012C62.7238 153.125 60.159 150.56 60.159 147.383V135.114C60.159 131.936 62.7238 129.371 65.9012 129.371H76.773C79.9504 129.371 82.5152 131.936 82.5152 135.114ZM76.773 114.059H65.9012C62.7238 114.059 60.159 111.494 60.159 108.317V96.6984C60.159 93.7316 62.4367 91.2434 65.3844 90.9754L76.2562 89.9992C77.0509 89.9277 77.8518 90.0225 78.6078 90.2777C79.3639 90.5328 80.0584 90.9426 80.6473 91.4811C81.2361 92.0195 81.7063 92.6747 82.028 93.4049C82.3496 94.1351 82.5155 94.9244 82.5152 95.7223V108.317C82.5152 111.494 79.9504 114.059 76.773 114.059ZM164.322 89.6738L159.709 109.599C159.417 110.862 158.705 111.989 157.69 112.796C156.675 113.602 155.417 114.041 154.12 114.04H141.239C138.061 114.04 135.496 111.475 135.496 108.298V89.9609C135.496 86.9941 137.774 84.5059 140.722 84.2379L158.197 82.6684C162.102 82.3238 165.203 85.884 164.322 89.6738ZM143.574 153.125H139.344C137.238 153.125 135.516 151.402 135.516 149.297V135.114C135.516 131.936 138.08 129.371 141.258 129.371H147.938C151.632 129.371 154.369 132.817 153.527 136.415L151.039 147.211C150.642 148.893 149.689 150.392 148.335 151.466C146.98 152.539 145.302 153.124 143.574 153.125ZM30.1465 135.056C29.534 132.109 31.7926 129.352 34.7977 129.352H39.1043C42.2816 129.352 44.8465 131.917 44.8465 135.095V148.359C44.8465 148.982 44.7237 149.6 44.4851 150.176C44.2466 150.751 43.8969 151.275 43.4562 151.716C43.0154 152.156 42.4921 152.506 41.9162 152.745C41.3402 152.983 40.723 153.106 40.0996 153.106C36.4629 153.106 33.3238 150.541 32.5965 146.981L30.1465 135.056Z" fill="#CBCCCE"/>
<path d="M144.588 224.577C156.216 224.577 165.643 215.15 165.643 203.522C165.643 191.894 156.216 182.468 144.588 182.468C132.96 182.468 123.534 191.894 123.534 203.522C123.534 215.15 132.96 224.577 144.588 224.577Z" fill="#CCCCCE"/>
<path d="M144.588 213.341C150.011 213.341 154.407 208.945 154.407 203.522C154.407 198.099 150.011 193.703 144.588 193.703C139.165 193.703 134.769 198.099 134.769 203.522C134.769 208.945 139.165 213.341 144.588 213.341Z" fill="#A2A2A2"/>
<path d="M43.4492 224.577C55.0774 224.577 64.5039 215.15 64.5039 203.522C64.5039 191.894 55.0774 182.468 43.4492 182.468C31.821 182.468 22.3945 191.894 22.3945 203.522C22.3945 215.15 31.821 224.577 43.4492 224.577Z" fill="#CCCCCE"/>
<path d="M43.4492 213.341C48.8722 213.341 53.2684 208.945 53.2684 203.522C53.2684 198.099 48.8722 193.703 43.4492 193.703C38.0263 193.703 33.6301 198.099 33.6301 203.522C33.6301 208.945 38.0263 213.341 43.4492 213.341Z" fill="#A2A2A2"/>
<path d="M226.989 45.2867C234.822 45.2867 241.172 38.9367 241.172 31.1035C241.172 23.2704 234.822 16.9203 226.989 16.9203C219.155 16.9203 212.805 23.2704 212.805 31.1035C212.805 38.9367 219.155 45.2867 226.989 45.2867Z" fill="#A2A2A2"/>
</svg>