<svg width="56" height="56" viewBox="0 0 56 56" fill="none" xmlns="http://www.w3.org/2000/svg">
<path d="M53.7648 17.1C50.8123 10.2167 45.7952 5.2106 38.8544 2.25038C35.3853 0.770862 31.7509 0.0151367 27.954 0.0151367C24.1577 0.0151367 20.5501 0.763725 17.0849 2.25038C10.2015 5.20273 5.16216 10.2056 2.2045 17.1C0.722418 20.5541 0 24.1727 0 27.969C0 31.766 0.722418 35.4147 2.2045 38.8695C5.16216 45.7639 10.2022 50.7968 17.0849 53.7499C20.5507 55.2365 24.1576 55.9844 27.954 55.9844C31.7504 55.9844 35.3853 55.2287 38.8538 53.7499C45.7946 50.7896 50.8118 45.7522 53.7649 38.8695C55.2514 35.4037 56 31.766 56 27.969C56 24.1727 55.2521 20.5658 53.7648 17.1ZM49.295 40.3393C47.097 44.1087 44.0858 47.0992 40.2934 49.3102C36.5239 51.5081 32.3937 52.6166 27.9546 52.6166C24.6175 52.6166 21.4332 51.9739 18.4017 50.6571C15.3703 49.3409 12.7529 47.6106 10.5634 45.4217C8.37392 43.2322 6.63124 40.5893 5.32814 37.5527C4.02889 34.5272 3.39925 31.3069 3.39925 27.9691C3.39925 23.5294 4.49007 19.4201 6.67571 15.6611C8.86914 11.8883 11.881 8.89471 15.6466 6.69012C19.4116 4.48562 23.515 3.38301 27.954 3.38301C32.3937 3.38301 36.5232 4.49212 40.2927 6.69012C44.0852 8.9012 47.0899 11.8947 49.2944 15.661C51.4989 19.4266 52.6008 23.5294 52.6008 27.969C52.6008 32.4089 51.5061 36.5461 49.295 40.3393Z" fill="#656C73"/>
<path d="M29.73 27.7242V11.864C29.73 10.9149 28.903 10.1494 27.9539 10.1494C27.0662 10.1494 26.2699 10.9149 26.2699 11.864V27.969C26.2699 27.9998 26.3313 28.1226 26.3313 28.2141C26.2699 28.7653 26.4235 29.2246 26.7906 29.5923L35.9458 38.7468C36.5584 39.3595 37.691 39.3595 38.3032 38.7468C39.0072 38.0427 38.9609 37.0211 38.3032 36.3587L29.73 27.7242Z" fill="#656C73"/>
</svg>
