<svg width="74" height="53" viewBox="0 0 74 53" fill="none" xmlns="http://www.w3.org/2000/svg">
<path d="M59.2291 40.1673C58.9389 40.1673 58.6488 40.0611 58.4224 39.8465L44.8494 27.1132C44.3752 26.6698 44.3516 25.922 44.7975 25.4479C45.2433 24.969 45.9863 24.9478 46.4652 25.396L60.0382 38.1292C60.5123 38.5727 60.5359 39.3204 60.0901 39.7946C59.8566 40.0422 59.5452 40.1673 59.2291 40.1673Z" fill="#50A8FF"/>
<path d="M13.9221 40.17C13.6083 40.17 13.2946 40.0449 13.0611 39.7973C12.6152 39.3231 12.6388 38.5754 13.113 38.1319L26.6907 25.3987C27.1672 24.9552 27.9149 24.9741 28.3584 25.4505C28.8042 25.9247 28.7807 26.6724 28.3065 27.1159L14.7288 39.8492C14.5023 40.0638 14.2122 40.17 13.9221 40.17Z" fill="#50A8FF"/>
<path d="M67.2564 52.0062H5.8972C2.64666 52.0062 0 49.3619 0 46.109V5.8972C0 2.6443 2.64666 0 5.8972 0H67.2564C70.5069 0 73.1536 2.6443 73.1536 5.8972V46.109C73.1536 49.3619 70.5069 52.0062 67.2564 52.0062ZM5.8972 2.35888C3.94641 2.35888 2.35888 3.94641 2.35888 5.8972V46.109C2.35888 48.0598 3.94641 49.6473 5.8972 49.6473H67.2564C69.2072 49.6473 70.7947 48.0598 70.7947 46.109V5.8972C70.7947 3.94641 69.2072 2.35888 67.2564 2.35888H5.8972Z" fill="#50A8FF"/>
<path d="M36.5768 31.9301C35.0082 31.9301 33.4395 31.4088 32.2459 30.3686L1.95792 3.94676C1.46727 3.5198 1.41538 2.7744 1.84233 2.28139C2.27401 1.79074 3.01705 1.74593 3.5077 2.16817L33.7957 28.5876C35.303 29.9015 37.8506 29.9015 39.3556 28.5876L69.6059 2.21063C70.0942 1.78367 70.8372 1.83085 71.2712 2.32385C71.6982 2.81686 71.6487 3.5599 71.158 3.98922L40.9077 30.3662C39.7118 31.4088 38.1455 31.9301 36.5768 31.9301Z" fill="#50A8FF"/>
</svg>
