<svg width="24" height="24" viewBox="0 0 24 24" fill="none" xmlns="http://www.w3.org/2000/svg">
<path d="M11.4649 17.56C11.3049 17.56 11.1449 17.5 11.0249 17.4C10.8249 17.24 10.7249 16.98 10.7849 16.72L11.7649 11.72L11.2249 12.02C10.8849 12.2 10.4649 12.1 10.2649 11.76C10.0849 11.42 10.1849 11 10.5249 10.8L12.3849 9.73998C12.6249 9.59998 12.9249 9.61999 13.1449 9.77999C13.3649 9.93999 13.465 10.22 13.425 10.48L12.4049 15.66L13.2449 15.3C13.6049 15.14 14.0049 15.3 14.1649 15.66C14.3249 16.02 14.1649 16.42 13.8049 16.58L11.7449 17.48C11.6649 17.54 11.5649 17.56 11.4649 17.56ZM13.4449 7.99999C13.6249 7.81999 13.7449 7.55999 13.7449 7.29999C13.7449 7.03999 13.6449 6.77999 13.4449 6.59999C13.2649 6.41999 13.0049 6.29999 12.7449 6.29999C12.4849 6.29999 12.2249 6.39999 12.0449 6.59999C11.8649 6.77999 11.7449 7.03999 11.7449 7.29999C11.7449 7.55999 11.8449 7.81999 12.0449 7.99999C12.2249 8.17999 12.4849 8.29999 12.7449 8.29999C13.0049 8.29999 13.2649 8.19999 13.4449 7.99999ZM21.2049 12C21.2049 6.91999 17.0849 2.79999 12.0049 2.79999C6.92493 2.79999 2.80493 6.91999 2.80493 12C2.80493 17.08 6.92493 21.2 12.0049 21.2C17.0849 21.2 21.2049 17.08 21.2049 12ZM19.6049 12C19.6049 16.2 16.2049 19.6 12.0049 19.6C7.80493 19.6 4.40493 16.2 4.40493 12C4.40493 7.79999 7.80493 4.39999 12.0049 4.39999C16.2049 4.39999 19.6049 7.79999 19.6049 12Z" fill="#DEDEDE"/>
</svg>
