<svg width="20" height="19" viewBox="0 0 20 19" fill="none" xmlns="http://www.w3.org/2000/svg">
<path fill-rule="evenodd" clip-rule="evenodd" d="M3.98815 12.0975C4.72168 11.364 5.71655 10.9519 6.75392 10.9519H13.0121C14.0495 10.9519 15.0444 11.364 15.7779 12.0975C16.5114 12.8311 16.9235 13.8259 16.9235 14.8633V16.4279C16.9235 16.8599 16.5733 17.2101 16.1413 17.2101C15.7092 17.2101 15.359 16.8599 15.359 16.4279V14.8633C15.359 14.2409 15.1117 13.644 14.6716 13.2038C14.2315 12.7637 13.6346 12.5165 13.0121 12.5165H6.75392C6.1315 12.5165 5.53457 12.7637 5.09446 13.2038C4.65434 13.6439 4.40709 14.2409 4.40709 14.8633V16.4279C4.40709 16.8599 4.05685 17.2101 3.62481 17.2101C3.19277 17.2101 2.84253 16.8599 2.84253 16.4279V14.8633C2.84253 13.8259 3.25462 12.8311 3.98815 12.0975Z" fill="#DEDEDE"/>
<path fill-rule="evenodd" clip-rule="evenodd" d="M9.88307 3.1291C8.58695 3.1291 7.53624 4.17981 7.53624 5.47593C7.53624 6.77206 8.58695 7.82277 9.88307 7.82277C11.1792 7.82277 12.2299 6.77206 12.2299 5.47593C12.2299 4.17981 11.1792 3.1291 9.88307 3.1291ZM5.97168 5.47593C5.97168 3.31573 7.72287 1.56454 9.88307 1.56454C12.0433 1.56454 13.7945 3.31573 13.7945 5.47593C13.7945 7.63614 12.0433 9.38733 9.88307 9.38733C7.72287 9.38733 5.97168 7.63614 5.97168 5.47593Z" fill="#DEDEDE"/>
</svg>
