<svg width="50" height="50" viewBox="0 0 50 50" fill="none" xmlns="http://www.w3.org/2000/svg">
<path fill-rule="evenodd" clip-rule="evenodd" d="M25 50C38.8071 50 50 38.8071 50 25C50 11.1929 38.8071 0 25 0C11.1929 0 0 11.1929 0 25C0 38.8071 11.1929 50 25 50Z" fill="#F3F3F3"/>
<mask id="mask0" mask-type="alpha" maskUnits="userSpaceOnUse" x="0" y="0" width="50" height="50">
<path fill-rule="evenodd" clip-rule="evenodd" d="M25 50C38.8071 50 50 38.8071 50 25C50 11.1929 38.8071 0 25 0C11.1929 0 0 11.1929 0 25C0 38.8071 11.1929 50 25 50Z" fill="white"/>
</mask>
<g mask="url(#mask0)">
<path fill-rule="evenodd" clip-rule="evenodd" d="M24.894 39.2019C22.3562 39.2019 20.1643 37.8708 19.6432 36.1568H20.6831C21.1041 36.1568 21.4446 35.8073 21.4446 35.3766V32.1289C22.4976 32.6531 23.679 32.9492 24.9288 32.9492C26.1787 32.9492 27.3601 32.6531 28.4131 32.13V35.3766C28.4131 35.8073 28.7547 36.1568 29.1756 36.1568H30.146C29.6238 37.8708 27.4319 39.2019 24.894 39.2019M18.5271 25.4009L18.0441 20.5093C18.0148 20.2411 17.9952 19.9695 17.9952 19.6924C17.9952 15.7591 21.1063 12.5593 24.9288 12.5593C28.7525 12.5593 31.8625 15.7591 31.8625 19.6924C31.8625 19.9695 31.844 20.2411 31.8103 20.5605L31.3295 25.4053C31.0162 28.8178 28.2651 31.3899 24.9288 31.3899C21.5936 31.3899 18.8426 28.8178 18.5271 25.4009M32.5413 34.5975H29.9371V31.1328C31.5427 29.7983 32.6359 27.8305 32.8459 25.5567L33.3267 20.6852C33.3626 20.358 33.3865 20.0274 33.3865 19.6924C33.3865 14.8999 29.5923 11 24.9288 11C20.2654 11 16.4723 14.8999 16.4723 19.6924C16.4723 20.0274 16.4951 20.358 16.5321 20.7175L17.0118 25.5511C17.2218 27.8283 18.315 29.7972 19.9217 31.1328V34.5975H17.3164C11.6174 34.5975 6.98007 39.3644 6.98007 45.2209C6.98007 45.6516 7.32164 46 7.74154 46C8.16252 46 8.50409 45.6516 8.50409 45.2209C8.50409 40.2225 12.4561 36.1568 17.3164 36.1568H18.08C18.5663 38.7556 21.4326 40.7601 24.8951 40.7601C28.3565 40.7601 31.2229 38.7556 31.7091 36.1568H32.5413C37.4016 36.1568 41.3547 40.2225 41.3547 45.2209C41.3547 45.6516 41.6952 46 42.1162 46C42.5371 46 42.8776 45.6516 42.8776 45.2209C42.8776 39.3644 38.2414 34.5975 32.5413 34.5975" fill="#C6C6C6"/>
</g>
</svg>
