<svg width="19" height="16" viewBox="0 0 19 16" fill="none" xmlns="http://www.w3.org/2000/svg">
<path d="M18.446 3.08087C17.589 1.21181 15.7916 0 13.8479 0C11.9041 0 10.6501 0.842105 9.91859 1.74583C9.18707 0.842105 7.93305 0 5.98931 0C4.04557 0 2.24813 1.21181 1.39122 3.08087C0.5134 5.03209 0.889606 7.18869 2.41534 8.8729C6.07291 12.9191 9.31248 15.7741 9.35428 15.7946C9.52148 15.9384 9.70958 16 9.91859 16C10.1276 16 10.3157 15.9384 10.4829 15.7946C10.5247 15.7741 13.7434 12.8986 17.4218 8.8729C18.9685 7.18869 19.3447 5.03209 18.446 3.08087ZM16.1887 7.78434C13.4717 10.7625 11.0054 13.104 9.93949 14.0693C8.87357 13.0834 6.40732 10.7625 3.69026 7.76381C2.60344 6.552 2.33174 5.0937 2.93785 3.71758C3.50216 2.46469 4.73528 1.60206 6.01021 1.60206C8.49736 1.60206 9.06167 3.43005 9.12437 3.65598C9.20798 4.02568 9.54238 4.27215 9.91859 4.27215C10.2948 4.27215 10.6292 4.00514 10.7337 3.65598C10.7964 3.45059 11.3607 1.60206 13.8479 1.60206C15.1019 1.60206 16.335 2.44415 16.9202 3.71758C17.5472 5.11424 17.2755 6.57253 16.1887 7.78434ZM15.9797 5.40181C16.0006 5.79205 15.708 6.14121 15.29 6.16175C15.2691 6.16175 15.2482 6.16175 15.2482 6.16175C14.872 6.16175 14.5376 5.87419 14.5167 5.48394C14.4331 4.31321 13.6598 4.12837 13.5135 4.10783C13.1164 4.04621 12.8446 3.69704 12.8864 3.3068C12.9492 2.91655 13.3254 2.64955 13.7225 2.69062C14.454 2.79332 15.8543 3.49167 15.9797 5.40181ZM14.9765 6.59306C15.1437 6.75738 15.2273 6.96278 15.2273 7.16817C15.2273 7.3941 15.1437 7.59948 14.9765 7.74325C14.8302 7.90756 14.6003 7.98974 14.3913 7.98974C14.1823 7.98974 13.9524 7.90756 13.8061 7.74325C13.6389 7.59948 13.5553 7.37356 13.5553 7.16817C13.5553 6.96278 13.6389 6.73684 13.8061 6.59306C13.9524 6.44929 14.1823 6.3466 14.3913 6.3466C14.6003 6.36714 14.8093 6.44929 14.9765 6.59306Z" fill="#DEDEDE"/>
</svg>
