<?xml version="1.0" encoding="utf-8"?>
<svg version="1.1" id="sprite" xmlns="http://www.w3.org/2000/svg" xmlns:xlink="http://www.w3.org/1999/xlink" x="0px" y="0px"
	 viewBox="0 0 128 296" style="enable-background:new 0 0 128 296;" xml:space="preserve">
<style type="text/css">
	.st0{fill:#EBEBEB;}
	.st1{fill:#8C8C8C;}
	.st2{fill:#FF4200;}
	.st3{fill:#FFFFFF;}
	.st4{fill:#0084FF;}
	.st5{fill:#DC4E41;}
	.st6{fill:#FF0000;}
	.st7{fill:#665CA7;}
	.st8{fill:#EF7D01;}
	.st9{fill:#2D2D2D;}
	.st10{fill:#39579F;}
	.st11{fill:#2CA5E0;}
	.st12{fill:#5181B8;}
	.st13{fill:#1DA1F2;}
	.st14{fill:#168DE2;}
	.st15{fill:#8B8B8B;}
	.st16{fill:#25D366;}
	.st17{fill:url(#wb_x5F_bg_1_);}
</style>
<g id="cross_1_">
	<circle id="btn_x5F_bg" class="st0" cx="106" cy="106" r="20"/>
	<polygon id="cross" class="st1" points="110.8,101.8 110.2,101.2 106,105.4 101.8,101.2 101.2,101.8 105.4,106 101.2,110.2 
		101.8,110.8 106,106.6 110.2,110.8 110.8,110.2 106.6,106 	"/>
</g>
<g id="btn">
	<circle id="btn_x5F_bg_1_" class="st2" cx="64" cy="106" r="20"/>
	<path id="btn_x5F_icon" class="st3" d="M64.4,96.4c-6,0-10.8,3.9-10.8,8.7c0,2.5,1.3,4.6,3.3,6.2l-2.3,5l6.9-2.8
		c1,0.2,1.9,0.3,3,0.3c6,0,10.8-3.8,10.8-8.7C75.2,100.3,70.4,96.4,64.4,96.4z M71.5,106.6c-0.4,0.4-0.9,0.6-1.4,0.6s-1-0.2-1.4-0.6
		s-0.6-0.9-0.6-1.4s0.2-1,0.6-1.4c0.7-0.7,2-0.7,2.7,0c0.4,0.4,0.6,0.9,0.6,1.4C72.2,105.7,71.9,106.2,71.5,106.6z M65.8,106.6
		c-0.4,0.4-0.9,0.6-1.4,0.6s-1-0.2-1.4-0.6s-0.6-0.9-0.6-1.4s0.2-1,0.6-1.4c0.7-0.7,2-0.7,2.7,0c0.4,0.4,0.6,0.9,0.6,1.4
		S66.2,106.2,65.8,106.6z M60.2,106.6c-0.4,0.4-0.9,0.6-1.4,0.6s-1-0.2-1.4-0.6s-0.6-0.9-0.6-1.4s0.2-1,0.6-1.4c0.7-0.7,2-0.7,2.7,0
		c0.4,0.4,0.6,0.9,0.6,1.4C60.7,105.7,60.6,106.2,60.2,106.6z"/>
</g>
<g id="mg">
	<circle id="mg_x5F_bg_2_" class="st4" cx="22" cy="148" r="20"/>
	<path id="mg_x5F_icon_2_" class="st3" d="M21.9,137.6c-6.2,0-11.1,4.6-11.1,10.3c0,3.2,1.7,6.2,4.2,8v3.9l3.8-2.1
		c1,0.3,2.1,0.4,3.2,0.4c6.2,0,11.1-4.6,11.1-10.3C33.2,142.3,28,137.6,21.9,137.6z M23,151.4l-2.8-3l-5.6,3l6-6.5l2.9,3l5.5-3
		C29.1,145,23,151.4,23,151.4z"/>
</g>
<g id="gp">
	<circle id="gp_x5F_bg" class="st5" cx="106" cy="148" r="20"/>
	<path id="gp_x5F_icon" class="st3" d="M97,148.2c-0.2-4.7,4-9.1,8.7-9.2c2.4-0.2,4.7,0.7,6.6,2.2c-0.7,0.8-1.5,1.6-2.4,2.4
		c-1.6-0.9-3.5-1.8-5.4-1.1c-3.1,0.8-4.8,4.5-3.8,7.4c0.9,3.1,4.7,4.8,7.6,3.5c1.5-0.6,2.5-2,2.9-3.4c-1.8,0-3.5,0-5.2-0.1
		c0-1.1,0-2.1,0-3.1c2.9,0,5.9,0,8.7,0c0.2,2.6-0.2,5.3-1.9,7.3c-2.2,2.9-6.5,3.8-9.9,2.6C99.6,155.6,97,152,97,148.2L97,148.2z"/>
</g>
<g id="yt">
	<circle id="yt_x5F_bg_2_" class="st6" cx="22" cy="106" r="20"/>
	<path id="yt_x5F_icon_2_" class="st3" d="M32.2,100.8c-0.2-0.9-1-1.6-1.9-1.9c-1.7-0.5-8.4-0.5-8.4-0.5s-6.7,0-8.4,0.5
		c-0.9,0.2-1.6,1-1.9,1.9c-0.4,1.7-0.4,5.1-0.4,5.1s0,3.5,0.5,5.2c0.2,0.9,1,1.6,1.9,1.9c1.7,0.5,8.4,0.5,8.4,0.5s6.7,0,8.4-0.5
		c0.9-0.2,1.6-1,1.9-1.9c0.5-1.7,0.5-5.2,0.5-5.2S32.7,102.5,32.2,100.8z M19.9,109.2v-6.4l5.5,3.2L19.9,109.2z"/>
</g>
<g id="vib">
	<circle id="vib_x5F_bg_1_" class="st7" cx="64" cy="64" r="20"/>
	<path id="vib_x5F_icon" class="st3" d="M68,63.3c-0.2,0-0.4-0.2-0.4-0.4c-0.1-1.5-0.8-2.3-2.3-2.4c-0.2,0-0.4-0.2-0.4-0.5
		c0-0.2,0.2-0.4,0.5-0.4c1.9,0.1,3,1.2,3.1,3.2C68.5,63.1,68.3,63.3,68,63.3L68,63.3 M70.3,64.1c0.2,0,0.4-0.2,0.4-0.4
		c0-1.8-0.5-3.2-1.6-4.4s-2.6-1.9-4.5-2c-0.2,0-0.5,0.2-0.5,0.4s0.2,0.5,0.4,0.5c1.7,0.1,3,0.7,3.9,1.7s1.4,2.3,1.3,3.8
		C69.9,63.8,70.1,64.1,70.3,64.1L70.3,64.1 M72.7,65c0.2,0,0.4-0.2,0.4-0.5c0-3-0.9-5.3-2.7-7c-1.8-1.7-4-2.6-6.6-2.6l0,0
		c-0.2,0-0.4,0.2-0.4,0.4s0.2,0.5,0.4,0.5c2.4,0,4.4,0.8,6,2.4c1.6,1.6,2.4,3.7,2.4,6.4C72.3,64.8,72.5,65,72.7,65L72.7,65z
		 M65.4,68.9c-4.6-1.2-5.9-5.8-5.9-5.8s-0.1-0.6,0.4-1l0.8-0.7c0.4-0.3,0.7-1.1,0.3-1.8c-0.2-0.4-0.7-1.2-1.1-1.6
		c-0.4-0.5-1.2-1.5-1.2-1.5c-0.4-0.5-1-0.6-1.7-0.3l0,0c-0.6,0.3-1.2,0.8-1.7,1.4l0,0c-0.4,0.5-0.6,0.9-0.7,1.4c0,0.1,0,0.1,0,0.2
		c0,0.2,0,0.4,0.1,0.6l0,0c0.2,0.7,0.7,1.9,1.8,3.9c0.7,1.3,1.4,2.3,2.1,3.2c0.4,0.5,0.8,1,1.3,1.5l0,0c0,0,0,0,0,0.1c0,0,0,0,0.1,0
		l0,0c0.5,0.5,1,0.9,1.5,1.3c0.9,0.7,2,1.4,3.2,2.1c2,1.1,3.1,1.6,3.9,1.8l0,0c0.2,0.1,0.4,0.1,0.6,0.1c0.1,0,0.1,0,0.2,0
		c0.5-0.1,0.9-0.3,1.4-0.7l0,0c0.6-0.5,1-1.1,1.4-1.7l0,0c0.3-0.6,0.2-1.2-0.3-1.7c0,0-1-0.9-1.5-1.2c-0.5-0.3-1.2-0.8-1.6-1.1
		C68,67,67.3,67.2,67,67.7l-0.7,0.8C66.1,68.9,65.4,68.9,65.4,68.9"/>
</g>
<g id="ok">
	<circle id="ok_x5F_bg_2_" class="st8" cx="106" cy="22" r="20"/>
	<path id="ok_x5F_icon_2_" class="st3" d="M106,11.7c-2.8,0-5.1,2.3-5.1,5.1s2.3,5.1,5.1,5.1c2.8,0,5.1-2.3,5.1-5.1
		S108.8,11.7,106,11.7z M106,18.9c-1.1,0-2.1-0.9-2.1-2.1c0-1.1,0.9-2.1,2.1-2.1s2.1,0.9,2.1,2.1S107.2,18.9,106,18.9z M108.1,26.1
		c1.8-0.4,2.9-1.2,3.1-1.3l0,0c0.4-0.3,0.6-0.7,0.6-1.2c0-0.8-0.7-1.5-1.5-1.5c-0.3,0-0.6,0.1-0.9,0.3l0,0l0,0c0,0-1.4,0.9-3.3,0.9
		s-3.4-1-3.5-1l0,0l0,0c-0.2-0.2-0.5-0.2-0.8-0.2c-0.8,0-1.5,0.7-1.5,1.5c0,0.5,0.2,1,0.7,1.2l0,0c0.1,0.1,1.2,0.8,3,1.2l-2.8,2.9
		c-0.6,0.6-0.5,1.5,0,2.1c0.3,0.3,0.7,0.5,1.1,0.5s0.8-0.2,1.1-0.5l2.8-2.8L109,31c0.6,0.6,1.5,0.6,2.1,0s0.6-1.5,0-2.1L108.1,26.1z
		"/>
</g>
<g id="ins">
	<circle id="ins_x5F_bg_2_" class="st9" cx="64" cy="22" r="20"/>
	<path id="ins_x5F_icon" class="st3" d="M72.4,26.5c0,2.2-1.8,4-3.9,4h-8.9c-2.2,0-3.9-1.8-3.9-4v-8.9c0-2.2,1.8-4,3.9-4h8.9
		c2.2,0,3.9,1.8,3.9,4V26.5z M68.3,11.7h-8.7c-3.3,0-5.9,2.7-5.9,6v8.7c0,3.3,2.7,6,5.9,6h6.8h1.9c3.3,0,5.9-2.7,5.9-6v-8.7
		C74.3,14.4,71.6,11.7,68.3,11.7L68.3,11.7z M64,25.5c-1.9,0-3.5-1.6-3.5-3.5s1.5-3.5,3.5-3.5s3.5,1.6,3.5,3.5
		C67.5,24,65.9,25.5,64,25.5 M64,16.7c-2.9,0-5.3,2.4-5.3,5.4s2.4,5.4,5.3,5.4c2.9,0,5.3-2.4,5.3-5.4S66.9,16.7,64,16.7 M69.5,15.2
		c-0.7,0-1.2,0.6-1.2,1.2c0,0.6,0.6,1.2,1.2,1.2c0.7,0,1.2-0.6,1.2-1.2S70.2,15.2,69.5,15.2"/>
</g>
<g id="fb">
	<circle id="fb_x5F_bg_2_" class="st10" cx="22" cy="22" r="20"/>
	<path id="fb_x5F_icon_2_" class="st3" d="M26.3,12.7c-6.4,0-6.9,0.6-6.9,6.3h-2v3.3h2v9.6h3.9v-9.6h2.6l0.4-3.3h-2.9
		c0,0,0-0.8,0-1.7s0.3-1.3,1.5-1.3s1.5,0,1.5,0L26.3,12.7L26.3,12.7z"/>
</g>
<g id="tg">
	<circle id="tg_x5F_bg_4_" class="st11" cx="22" cy="64" r="20"/>
	<path id="tg_x5F_icon_2_" class="st3" d="M12.6,62.5L28,56.8c0.6-0.2,1.2,0.4,1.1,1.1l-5.6,15.5c-0.2,0.6-1.1,0.7-1.3,0.1l-3.6-6.1
		c-0.1-0.1-0.2-0.2-0.3-0.3l-5.7-3.2C11.9,63.5,12.1,62.6,12.6,62.5z"/>
</g>
<g id="vk">
	<circle id="vk_x5F_bg_2_" class="st12" cx="106" cy="64" r="20"/>
	<path id="vk_x5F_icon_2_" class="st3" d="M115.3,59.1c0.2-0.5,0-0.8-0.6-0.8h-2.1c-0.5,0-0.8,0.3-0.9,0.6c0,0-1.1,2.6-2.6,4.3
		c-0.5,0.5-0.7,0.6-1,0.6c-0.2,0-0.3-0.2-0.3-0.6V59c0-0.5-0.2-0.8-0.6-0.8h-3.3c-0.3,0-0.5,0.2-0.5,0.5c0,0.5,0.8,0.6,0.8,2.1V64
		c0,0.7-0.2,0.8-0.4,0.8c-0.7,0-2.5-2.6-3.5-5.6c-0.2-0.6-0.4-0.8-0.9-0.8h-2.1c-0.6,0-0.7,0.3-0.7,0.6c0,0.5,0.7,3.3,3.3,7
		c1.8,2.5,4.2,3.9,6.4,3.9c1.3,0,1.5-0.3,1.5-0.8V67c0-0.6,0.2-0.7,0.5-0.7s0.8,0.2,2.1,1.4c1.5,1.5,1.7,2.1,2.5,2.1h2.1
		c0.6,0,0.9-0.3,0.7-0.9c-0.2-0.6-0.8-1.5-1.8-2.5c-0.5-0.6-1.2-1.2-1.5-1.5c-0.3-0.4-0.2-0.6,0-0.9C112.4,64,115.1,60.3,115.3,59.1
		z"/>
</g>
<g id="tw">
	<circle id="tw_x5F_bg" class="st13" cx="64" cy="148" r="20"/>
	<path id="tw_x5F_icon_1_" class="st3" d="M60.6,157.1c7.9,0,12.2-6.5,12.2-12.2c0-0.2,0-0.4,0-0.6c0.8-0.6,1.6-1.4,2.1-2.2
		c-0.8,0.3-1.6,0.6-2.5,0.7c0.9-0.5,1.6-1.4,1.9-2.4c-0.8,0.5-1.7,0.8-2.7,1c-0.8-0.8-1.9-1.3-3.1-1.3c-2.4,0-4.3,1.9-4.3,4.3
		c0,0.3,0,0.7,0.1,1c-3.6-0.2-6.7-1.9-8.8-4.5c-0.4,0.6-0.6,1.4-0.6,2.1c0,1.5,0.8,2.8,1.9,3.6c-0.7,0-1.4-0.2-1.9-0.5
		c0,0,0,0,0,0.1c0,2.1,1.5,3.8,3.4,4.2c-0.4,0.1-0.7,0.2-1.1,0.2c-0.3,0-0.5,0-0.8-0.1c0.5,1.7,2.1,2.9,4,3
		c-1.5,1.1-3.3,1.8-5.3,1.8c-0.3,0-0.7,0-1-0.1C55.9,156.4,58.2,157.1,60.6,157.1"/>
</g>
<g id="mail">
	<circle id="mail_x5F_bg" class="st14" cx="64" cy="190" r="20"/>
	<path id="mail_x5F_icon_1_" class="st3" d="M63.6,183.9c1.7,0,3.2,0.7,4.3,1.9l0,0c0-0.5,0.4-1,0.9-1h0.1c0.8,0,1,0.8,1,1v8.5
		c-0.1,0.6,0.6,0.8,0.9,0.5c1.4-1.4,3-7.2-0.9-10.6c-3.6-3.1-8.4-2.6-11-0.9c-2.7,1.9-4.5,6-2.8,10c1.8,4.3,7.1,5.5,10.3,4.3
		c1.6-0.6,2.3,1.5,0.7,2.2c-2.5,1.1-9.5,1-12.7-4.7c-2.2-3.8-2.1-10.5,3.7-13.9c4.5-2.6,10.3-1.9,13.9,1.8
		c3.7,3.9,3.5,11.1-0.1,13.9c-1.6,1.3-4.1,0-4-1.8v-0.6c-1.1,1.1-2.7,1.8-4.3,1.8c-3.3,0-6.1-2.9-6.1-6.1
		C57.5,186.8,60.4,183.9,63.6,183.9 M67.7,189.9c-0.1-2.4-1.9-3.8-4-3.8h-0.1c-2.5,0-3.8,1.9-3.8,4.1c0,2.5,1.7,4,3.8,4
		c2.4,0,4-1.8,4.1-3.9V189.9z"/>
</g>
<g id="wa">
	<circle id="wa_x5F_bg_2_" class="st16" cx="22" cy="190" r="20"/>
	<path id="wa_x5F_icon_2_" class="st3" d="M27.6,191.9c-0.3-0.2-1.6-0.8-1.8-0.9c-0.3-0.1-0.4-0.2-0.6,0.2c-0.2,0.3-0.7,0.9-0.9,1.1
		c-0.2,0.2-0.4,0.2-0.6,0.1c-0.3-0.2-1.1-0.4-2.2-1.3c-0.8-0.7-1.3-1.6-1.5-1.8c-0.2-0.3,0-0.4,0.1-0.6c0.1-0.1,0.3-0.4,0.4-0.4
		c0.1-0.2,0.2-0.3,0.3-0.4c0.1-0.2,0.1-0.4,0-0.4c-0.1-0.2-0.6-1.5-0.8-2.1c-0.1-0.6-0.4-0.4-0.6-0.4s-0.4,0-0.6,0s-0.4,0.1-0.7,0.4
		s-1,0.9-1,2.2s1,2.6,1.1,2.8c0.2,0.2,2,2.9,4.6,4.1c0.6,0.3,1.1,0.4,1.5,0.6c0.6,0.2,1.3,0.2,1.7,0.1c0.6-0.1,1.6-0.6,1.8-1.3
		c0.3-0.6,0.3-1.1,0.2-1.3C28.1,192,27.9,191.9,27.6,191.9 M22.7,198.6L22.7,198.6c-1.6,0-3.2-0.4-4.6-1.3l-0.4-0.2l-3.4,0.9
		l0.9-3.3l-0.2-0.4c-0.9-1.4-1.4-3.1-1.4-4.8c0-5,4.1-8.9,9.1-8.9c2.4,0,4.7,1,6.4,2.7s2.7,4,2.7,6.4
		C31.8,194.5,27.6,198.6,22.7,198.6 M30.4,181.9c-2.1-2.1-4.8-3.1-7.7-3.1c-6,0-10.9,4.8-10.9,10.9c0,2,0.6,3.8,1.4,5.4l-1.5,5.6
		l5.7-1.5c1.6,0.9,3.4,1.3,5.3,1.3l0,0c6,0,10.9-4.9,10.9-10.9C33.5,186.7,32.5,184.1,30.4,181.9"/>
</g>
<g id="wb">
	
		<linearGradient id="wb_x5F_bg_1_" gradientUnits="userSpaceOnUse" x1="120.1421" y1="206.1421" x2="91.8579" y2="177.8579" gradientTransform="matrix(1 0 0 -1 0 382)">
		<stop  offset="0" style="stop-color:#EE3A84"/>
		<stop  offset="1" style="stop-color:#15144A"/>
	</linearGradient>
	<circle id="wb_x5F_bg" class="st17" cx="106" cy="190" r="20"/>
	<path id="wb_x5F_icon_1_" class="st3" d="M108.5,184.3l-3,11.3h-2.1l-2.3-8.3l-2.1,8.3h-2.1l-3.1-11.3H96l2.2,8.3l2-8.3h2.1
		l2.3,8.3l2.2-8.3H108.5z M109.9,195.7v-11.3h4.4c0.7,0,1.4,0.1,1.9,0.2c0.5,0.2,0.9,0.5,1.3,1s0.5,1.1,0.5,1.7
		c0,0.6-0.2,1.2-0.5,1.6c-0.4,0.5-0.9,0.8-1.5,0.9c0.8,0.1,1.4,0.5,1.8,1s0.6,1.1,0.6,1.8c0,0.9-0.3,1.6-0.9,2.2
		c-0.6,0.6-1.5,0.9-2.6,0.9L109.9,195.7L109.9,195.7z M111.9,189.1h2.5c0.5,0,0.9-0.2,1.2-0.5c0.3-0.3,0.4-0.7,0.4-1.2
		s-0.2-0.9-0.5-1.1c-0.3-0.2-0.7-0.4-1.2-0.4h-2.4V189.1z M111.9,194h2.6c0.6,0,1-0.1,1.3-0.4c0.3-0.3,0.5-0.7,0.5-1.2
		s-0.2-0.9-0.5-1.2s-0.8-0.5-1.3-0.5h-2.6V194z"/>
</g>
<g id="gp-gray">
	<circle id="gp_x5F_bg_1_" class="st15" cx="64" cy="274" r="20"/>
    <use xlink:href="#gp_x5F_icon" class="st3" x="-42" y="126" />
</g>
<g id="ok-gray">
	<circle id="ok_x5F_bg_1_" class="st15" cx="106" cy="232" r="20"/>
    <use xlink:href="#ok_x5F_icon_2_" class="st3" x="0" y="210" />
</g>
<g id="ins-gray">
	<circle id="ins_x5F_bg_1_" class="st15" cx="64" cy="232" r="20"/>
    <use xlink:href="#ins_x5F_icon" class="st3" x="0" y="210" />
</g>
<g id="fb-gray">
	<circle id="fb_x5F_bg_1_" class="st15" cx="22" cy="232" r="20"/>
    <use xlink:href="#fb_x5F_icon_2_" class="st3" x="0" y="210" />
</g>
<g id="vk-gray">
	<circle id="vk_x5F_bg_1_" class="st15" cx="106" cy="274" r="20"/>
    <use xlink:href="#vk_x5F_icon_2_" class="st3" x="0" y="210" />
</g>
<g id="mail-gray">
	<circle id="mail_x5F_bg_1_" class="st15" cx="22" cy="274" r="20"/>
    <use xlink:href="#mail_x5F_icon_1_" class="st3" x="-42" y="84" />
</g>
</svg>
